# xmcd
#
# Track frame offsets:
#	151
#	18104
#	31188
#	42437
#	59359
#	75132
#	107743
#	118130
#	135422
#	150206
#
# Disc length: 2204 seconds
#
# Revision: 1
# Processed by: cddbd v1.5.2PL0 Copyright (c) Steve Scherf et al.
# Submitted via: audiograbber 1.83.01
#
DISCID=68089a0a
DTITLE=Terri Williams - Sings The Best Of Gene Floyd
DYEAR=1900
DGENRE=Country
TTITLE0=Angels With A Broken Wings
TTITLE1=Collect On Delivery
TTITLE2=See The Writing On The Wall
TTITLE3=You Don´t Owe Me Anything
TTITLE4=How´s The World Treating You
TTITLE5=Walkin´ Roun´ Heaven Now
TTITLE6=Got Me Cryin´
TTITLE7=The Unwritten Song
TTITLE8=You Passed This Way Before
TTITLE9=She Loves The Devil Out´a Him
EXTD=
EXTT0=
EXTT1=
EXTT2=
EXTT3=
EXTT4=
EXTT5=
EXTT6=
EXTT7=
EXTT8=
EXTT9=
PLAYORDER=
